<?xml version="1.0" encoding="UTF-8"?>
<svg version="1.1" xmlns="http://www.w3.org/2000/svg" width="1254" height="1254">
<path d="M0 0 C413.82 0 827.64 0 1254 0 C1254 413.82 1254 827.64 1254 1254 C840.18 1254 426.36 1254 0 1254 C0 840.18 0 426.36 0 0 Z " fill="#000000" transform="translate(0,0)"/>
<path d="M0 0 C413.82 0 827.64 0 1254 0 C1254 413.82 1254 827.64 1254 1254 C840.18 1254 426.36 1254 0 1254 C0 840.18 0 426.36 0 0 Z M563 43 C560.39726507 43.31747102 557.79439685 43.63385086 555.19140625 43.94921875 C531.34447411 46.36234752 531.34447411 46.36234752 508.15625 51.9921875 C505.21798918 52.93039454 502.52223821 53.43197446 499.48046875 53.8984375 C492.60964608 54.98837241 486.00334987 56.74083701 479.3125 58.625 C478.06388184 58.97328857 476.81526367 59.32157715 475.52880859 59.68041992 C467.01378358 62.07294276 458.5524197 64.62717836 450.125 67.3125 C449.10446533 67.63750488 448.08393066 67.96250977 447.0324707 68.29736328 C441.88659054 69.96716392 436.9464922 71.81475495 432 74 C429.60934952 74.90957409 427.21314745 75.80464862 424.8125 76.6875 C422.63007046 77.50422494 420.44914675 78.32486675 418.26855469 79.14648438 C416.78328612 79.70529829 415.2969917 80.26139497 413.80957031 80.81445312 C358.08067895 101.66657258 304.93106668 134.74323832 260.04907227 173.65380859 C256.48624849 176.74215944 252.86857113 179.73956699 249.1875 182.6875 C244.96796263 186.10891373 241.11597191 189.73840213 237.36328125 193.6640625 C235.39419303 195.61036789 233.39286237 197.41046299 231.296875 199.21484375 C226.63909754 203.25595162 222.28525304 207.56762099 217.9375 211.9375 C217.17373047 212.69740234 216.40996094 213.45730469 215.62304688 214.24023438 C211.44192393 218.42851066 207.43109789 222.70352513 203.57055664 227.1887207 C201.36533938 229.73193644 199.05461593 232.17192721 196.75 234.625 C192.24945824 239.47642616 188.11103442 244.53940372 184.06665039 249.77441406 C180.29620246 254.65405554 176.37667725 259.38469608 172.38671875 264.0859375 C160.0851791 279.10549328 149.27578039 295.54730017 139 312 C138.4529541 312.87092285 137.9059082 313.7418457 137.34228516 314.63916016 C129.20195077 327.67046937 121.76575066 340.96403959 114.75 354.625 C114.38179138 355.34163818 114.01358276 356.05827637 113.63421631 356.79663086 C112.57993668 358.85443704 111.53067332 360.91468805 110.484375 362.9765625 C110.17563446 363.58291534 109.86689392 364.18926819 109.54879761 364.81399536 C107.53251743 368.81772491 105.7365877 372.87034395 104 377 C103.19374517 378.79448568 102.3816253 380.58635262 101.5625 382.375 C101.129375 383.32632812 100.69625 384.27765625 100.25 385.2578125 C99.50176871 386.8992449 98.75222144 388.54007983 98 390.1796875 C92.32939986 402.70226281 87.46940048 415.60553125 83.00390625 428.6015625 C82.59168068 429.79995255 82.59168068 429.79995255 82.17112732 431.02255249 C81.59316777 432.70475204 81.01587109 434.38717946 80.43920898 436.06982422 C79.57158829 438.5985121 78.69894041 441.12542882 77.82617188 443.65234375 C74.60014919 453.03503277 71.58722314 462.41775237 69 472 C68.80768799 472.70237793 68.61537598 473.40475586 68.41723633 474.12841797 C62.28521459 496.92443877 58.01905525 520.16687225 54.52734375 543.49511719 C54.0670161 546.55459114 53.58323885 549.60916698 53.09375 552.6640625 C41.03946539 631.57012845 48.79576419 720.51788445 74 796 C74.73108283 798.24198735 75.46149883 800.48419221 76.19140625 802.7265625 C81.22672457 818.07619535 86.72779003 833.11082868 93 848 C94.23155703 850.97220755 95.46215847 853.94480542 96.69140625 856.91796875 C97.33916016 858.44357422 97.33916016 858.44357422 98 860 C98.37463379 860.88389404 98.37463379 860.88389404 98.75683594 861.78564453 C102.24700406 869.83146115 106.20692988 877.65666249 110.125 885.5 C110.50505188 886.26111084 110.88510376 887.02222168 111.27667236 887.80639648 C116.4369096 898.11763442 121.69662715 908.29147445 127.80664062 918.07958984 C129.1462559 920.23536188 130.45693688 922.4073526 131.765625 924.58203125 C146.63617079 949.23743685 163.47799439 972.93936681 182 995 C182.87114079 996.04683585 183.74223238 997.09371266 184.61328125 998.140625 C190.86532291 1005.62365594 197.34105902 1012.876854 204 1020 C204.63164062 1020.67675781 205.26328125 1021.35351562 205.9140625 1022.05078125 C208.00264057 1024.28627451 210.09434627 1026.51879081 212.1875 1028.75 C212.84065186 1029.44706055 213.49380371 1030.14412109 214.16674805 1030.86230469 C220.40382035 1037.48816314 226.70622946 1043.9645084 233.61328125 1049.89453125 C236.11982213 1052.10570233 238.55701317 1054.3792115 240.99316406 1056.66723633 C246.52827907 1061.86290588 252.1190215 1066.8952172 258.05078125 1071.640625 C260.25392869 1073.40314295 262.43494631 1075.18251758 264.60546875 1076.984375 C273.67725765 1084.49029525 283.00674295 1091.52647513 292.62304688 1098.31884766 C295.07275638 1100.05145855 297.51303411 1101.79684429 299.953125 1103.54296875 C310.69417585 1111.19058862 321.63855966 1118.31198964 333 1125 C333.74008301 1125.43876465 334.48016602 1125.8775293 335.24267578 1126.32958984 C344.96890489 1132.08635814 354.82270439 1137.59787274 364.75 1143 C365.7620752 1143.55220215 366.77415039 1144.1044043 367.81689453 1144.67333984 C372.80725596 1147.37022303 377.76030931 1149.83376745 383 1152 C385.78279216 1153.28739553 388.5458961 1154.61574062 391.3125 1155.9375 C396.59768903 1158.44163522 401.87161464 1160.86450627 407.3359375 1162.95703125 C410.09223308 1164.03610884 412.80757841 1165.19918697 415.52929688 1166.36206055 C426.25148329 1170.90499997 437.24344583 1174.53498198 448.31445312 1178.1262207 C450.77561504 1178.92699329 453.23256511 1179.73896056 455.6875 1180.55859375 C456.41001953 1180.79980957 457.13253906 1181.04102539 457.87695312 1181.28955078 C459.27709119 1181.75808824 460.67684058 1182.22778901 462.07617188 1182.69873047 C483.62141809 1189.90576705 505.66351462 1194.56761135 528.01904297 1198.47705078 C530.59973018 1198.92978067 533.1770757 1199.39704627 535.75390625 1199.87109375 C549.08096365 1202.27250142 562.53070016 1203.66587608 576 1205 C577.03108887 1205.10731445 578.06217773 1205.21462891 579.12451172 1205.32519531 C613.96985262 1208.86536057 649.25585106 1207.72417899 684.04711914 1204.19598389 C685.84515727 1204.01553944 687.64422334 1203.84541689 689.44335938 1203.67626953 C716.22396353 1201.13586643 743.17746624 1195.9556117 769.1875 1189.125 C770.20924316 1188.85671387 771.23098633 1188.58842773 772.28369141 1188.31201172 C784.22771118 1185.16266894 796.03389893 1181.71839279 807.8125 1178 C809.40650635 1177.50137451 809.40650635 1177.50137451 811.03271484 1176.99267578 C816.53440689 1175.2376248 821.80399503 1173.29882707 827.04516602 1170.875 C829.65771512 1169.70560123 832.32902069 1168.84222746 835.0625 1168 C839.25223968 1166.64418323 843.12002562 1165.12828445 846.98828125 1163.02734375 C849.24222226 1161.87630203 851.5574271 1160.90957632 853.88647461 1159.92211914 C901.24886633 1139.25817626 945.75756899 1112.4003808 986 1080 C986.97582031 1079.21882813 987.95164062 1078.43765625 988.95703125 1077.6328125 C994.34521158 1073.27705273 999.55721428 1068.77029154 1004.6796875 1064.10546875 C1006.70154184 1062.27082315 1008.74678522 1060.47231214 1010.8125 1058.6875 C1020.50122941 1050.20507484 1029.75658321 1041.34226682 1038.875 1032.25 C1040.21244263 1030.9194458 1040.21244263 1030.9194458 1041.5769043 1029.56201172 C1046.0375686 1025.09088718 1050.35736956 1020.56195893 1054.47119141 1015.76953125 C1056.65904255 1013.23718614 1058.95882425 1010.81376683 1061.25 1008.375 C1066.7300394 1002.4605036 1071.66602031 996.19286655 1076.58642578 989.81201172 C1078.48497842 987.378323 1080.43332837 984.98682213 1082.38085938 982.59228516 C1110.34480468 948.11255783 1132.10313689 909.42626247 1151.65600586 869.71264648 C1152.81457063 867.37426081 1153.99954244 865.05194113 1155.19140625 862.73046875 C1157.06929901 858.98050014 1158.53243008 855.13507738 1159.9375 851.1875 C1161.56657266 846.61588583 1163.34916336 842.19952301 1165.4140625 837.8046875 C1168.2420484 831.66405433 1170.35996634 825.3642372 1172.4375 818.9375 C1173.22235664 816.53766241 1174.00751317 814.13792288 1174.79296875 811.73828125 C1175.35830322 810.00312256 1175.35830322 810.00312256 1175.93505859 808.23291016 C1176.84441069 805.47233234 1177.77878709 802.72390711 1178.73828125 799.98046875 C1181.79671211 791.2014257 1184.24692031 782.42010859 1186.26464844 773.34033203 C1187.36145552 768.43915484 1188.7123903 763.7499144 1190.35083008 759.00317383 C1191.16779015 756.48224212 1191.6287784 753.99675258 1192 751.375 C1192.70003251 746.80453979 1193.51688912 742.28150434 1194.4375 737.75 C1194.95835362 735.16667076 1195.47918675 732.58333738 1196 730 C1196.37318359 728.14955078 1196.37318359 728.14955078 1196.75390625 726.26171875 C1202.54157895 696.59610843 1204.34514901 667.07946945 1204.26074219 636.92431641 C1204.24942453 632.84520891 1204.25608761 628.7663646 1204.26761055 624.68726635 C1204.33191601 597.91923814 1203.72224825 571.19372713 1199.625 544.6875 C1199.40482611 543.20341133 1199.1849422 541.71927961 1198.96533203 540.23510742 C1197.62681322 531.33848751 1196.03658029 522.53540177 1193.90234375 513.79296875 C1192.66113046 508.57557435 1191.73478797 503.3200954 1190.80859375 498.0390625 C1189.78770025 492.63503051 1188.35920127 487.32654478 1187 482 C1186.4736615 479.88679266 1185.9476229 477.7735106 1185.421875 475.66015625 C1179.97683373 454.05684143 1172.8830434 433.40614421 1164.86645508 412.64624023 C1164.33131814 411.25923939 1163.79713521 409.87187009 1163.26391602 408.48413086 C1158.63229047 395.66797537 1158.63229047 395.66797537 1152.5 383.5625 C1151.08546835 381.14600843 1150.12657893 378.85811153 1149.125 376.25 C1147.48997955 372.03402772 1145.54853143 368.18850388 1143.24609375 364.30078125 C1141.95461802 361.91620694 1140.92266636 359.46794511 1139.87280273 356.9699707 C1138.2027028 353.20045005 1136.24443571 349.57780197 1134.3125 345.9375 C1133.86680664 345.09678955 1133.42111328 344.2560791 1132.96191406 343.38989258 C1113.73541378 307.28687406 1090.06287299 273.70379527 1063.43994141 242.68261719 C1061.91525974 240.90097832 1060.40044495 239.1112659 1058.88671875 237.3203125 C1052.05595779 229.25427204 1052.05595779 229.25427204 1044.68481445 221.68579102 C1042.96032828 219.96030528 1041.38104334 218.16331616 1039.796875 216.30859375 C1036.05538729 212.00615376 1032.10467835 207.95629062 1028.0625 203.9375 C1027.39798828 203.26912109 1026.73347656 202.60074219 1026.04882812 201.91210938 C1022.11369454 197.98460941 1018.06883112 194.24610994 1013.85961914 190.61450195 C1011.24451436 188.34409524 1008.72165311 185.98548388 1006.1875 183.625 C1000.64356377 178.51075829 994.90409662 173.69607685 989 169 C988.49307617 168.59346191 987.98615234 168.18692383 987.46386719 167.76806641 C966.02317369 150.58272768 943.59430066 135.07154666 920 121 C919.28360352 120.56896973 918.56720703 120.13793945 917.82910156 119.69384766 C907.38247949 113.4244608 896.69160058 107.66251513 885.875 102.0625 C885.25184906 101.73930786 884.62869812 101.41611572 883.98666382 101.08312988 C877.07866292 97.50754543 870.14541105 94.07685777 863 91 C861.03572516 90.12795167 859.07224133 89.25412033 857.109375 88.37890625 C846.48914113 83.66828524 835.90837898 79.00542041 825 75 C823.80375 74.53335938 822.6075 74.06671875 821.375 73.5859375 C811.64219588 69.79918798 801.77899756 66.67680072 791.74414062 63.79296875 C788.9342325 62.9809953 786.13136253 62.14718255 783.328125 61.3125 C766.08610183 56.25508577 748.61658659 52.47973634 731 49 C730.32224518 48.86578644 729.64449036 48.73157288 728.94619751 48.59329224 C720.26826605 46.88654163 711.60537685 45.42851236 702.8125 44.4375 C701.75224609 44.31455566 700.69199219 44.19161133 699.59960938 44.06494141 C692.73869641 43.28063202 685.87274594 42.54773423 679 41.875 C678.23792236 41.79950928 677.47584473 41.72401855 676.69067383 41.64624023 C674.12854186 41.4066397 671.56570582 41.19791775 669 41 C667.86570557 40.91169922 666.73141113 40.82339844 665.56274414 40.73242188 C651.86496928 39.79455317 638.1628761 39.75760006 624.4375 39.75 C623.1719931 39.74899292 621.90648621 39.74798584 620.60263062 39.74694824 C601.18550226 39.75738269 582.25876589 40.46769635 563 43 Z " fill="#000000" transform="translate(0,0)"/>
<path d="M0 0 C24.90668269 -0.09396599 49.81333832 -0.16423282 74.72016335 -0.20724869 C86.28811234 -0.22776376 97.8559504 -0.25566946 109.42382812 -0.30175781 C119.52119258 -0.34196778 129.61847659 -0.36751282 139.7159189 -0.37635398 C145.04901188 -0.38151169 150.38187499 -0.39339523 155.71489334 -0.42292023 C184.7949866 -0.57761935 213.84985646 -0.33426704 242 8 C242.81726563 8.24089355 243.63453125 8.48178711 244.4765625 8.72998047 C279.947166 19.409091 310.19108287 39.69738746 328.23730469 72.68945312 C333.4107566 82.57738146 336.40626695 93.18079821 339 104 C339.26110313 105.05487358 339.26110313 105.05487358 339.52748108 106.13105774 C340.13356972 109.81098092 340.12358889 113.42756186 340.09765625 117.14453125 C340.09553383 118.2992115 340.09553383 118.2992115 340.09336853 119.47721863 C340.08779606 121.92235288 340.07524871 124.36739368 340.0625 126.8125 C340.05748144 128.47591013 340.05291915 130.1393217 340.04882812 131.80273438 C340.03783566 135.86852528 340.0205901 139.93424683 340 144 C340.65779261 143.99723462 341.31558521 143.99446924 341.99331093 143.99162006 C358.15178041 143.92477019 374.31020045 143.87543713 390.4687748 143.84456348 C398.28359635 143.82922858 406.09832447 143.80840243 413.91308594 143.77368164 C420.7407121 143.74336167 427.56827049 143.7243285 434.39596212 143.71773452 C437.99640724 143.71389258 441.59665883 143.70516089 445.19704056 143.68280983 C472.58135492 143.51980274 499.38338676 145.11513955 526 152 C527.24652344 152.31839844 528.49304688 152.63679687 529.77734375 152.96484375 C547.23040317 157.89401083 564.27733626 167.23065236 578 179 C578.62261719 179.48984375 579.24523437 179.9796875 579.88671875 180.484375 C595.39461651 192.89069321 603.64301553 211.86924837 607 231 C607.4691207 236.25163987 607.58354546 241.48052894 607.5625 246.75 C607.56268127 247.45177368 607.56286255 248.15354736 607.56304932 248.87658691 C607.52126929 260.25306263 606.11205465 269.75249458 601 280 C600.50886719 281.10859375 600.01773438 282.2171875 599.51171875 283.359375 C596.4672902 289.95700452 592.70587104 295.48970656 588 301 C587.41734375 301.72703125 586.8346875 302.4540625 586.234375 303.203125 C567.65487881 325.52974647 538.34479111 335.42606045 511 342 C511.78117187 342.07476563 512.56234375 342.14953125 513.3671875 342.2265625 C522.11107049 343.21974297 530.61012404 344.90917272 539.1875 346.875 C540.26692871 347.11943848 541.34635742 347.36387695 542.45849609 347.61572266 C552.74344463 350.02383703 562.68292458 352.95718569 572.0625 357.875 C572.74022461 358.22377197 573.41794922 358.57254395 574.11621094 358.93188477 C575.46458331 359.62860776 576.81086986 360.329386 578.15478516 361.03466797 C579.77647306 361.88306093 581.40893279 362.71079665 583.04296875 363.53515625 C607.27328597 376.08736964 624.72919164 395.98789961 633.18603516 421.78320312 C640.49399291 445.09782815 637.51570267 474.28876275 626.625 495.93359375 C622.06378575 504.32986326 616.4075062 511.92377874 610 519 C609.47535156 519.60585938 608.95070313 520.21171875 608.41015625 520.8359375 C597.12082338 533.07322962 581.79823713 540.90655584 567 548 C566.3512793 548.31308105 565.70255859 548.62616211 565.03417969 548.94873047 C543.70485478 558.98640778 519.22702981 562.612484 496 565 C494.8715984 565.12417345 494.8715984 565.12417345 493.72040081 565.25085545 C483.87902739 566.21488869 474.06318963 566.13334494 464.18652344 566.11352539 C462.20448305 566.11324287 460.22244255 566.11340251 458.24040222 566.1139679 C452.89210056 566.11425335 447.54382159 566.10839741 442.19552517 566.10139394 C436.59415745 566.09511839 430.99278915 566.09455329 425.39141846 566.09336853 C414.79889729 566.09026756 404.20638651 566.08207088 393.61386991 566.07201904 C381.54852633 566.06081948 369.48318224 566.05533779 357.41783476 566.05032361 C332.61188409 566.03988718 307.80594263 566.02231175 283 566 C282.95745644 564.00045254 282.95919217 561.99958364 283 560 C284.64687289 558.35312711 286.69260258 558.59871003 288.9609375 558.3515625 C289.99089844 558.23296875 291.02085937 558.114375 292.08203125 557.9921875 C294.23790323 557.75179371 296.39414486 557.51468666 298.55078125 557.28125 C311.28681577 555.8014141 327.89807441 552.82521723 336.625 542.375 C343.97660016 530.74816159 344.14961425 516.84954136 344.14044189 503.59063721 C344.14302908 502.23110011 344.14604322 500.87156376 344.1494453 499.51202846 C344.15747674 495.7907474 344.1593027 492.06948568 344.16004276 488.34819698 C344.16190002 484.32897873 344.1694506 480.30977036 344.17617798 476.29055786 C344.1897334 467.50951555 344.19578139 458.72847782 344.20018864 449.9474268 C344.20295524 444.46101091 344.20719329 438.97459677 344.21169281 433.48818207 C344.22388079 418.28703039 344.23418171 403.08588012 344.2375679 387.88472366 C344.23778747 386.91271166 344.23800703 385.94069966 344.23823325 384.93923275 C344.23845153 383.96495023 344.23866981 382.9906677 344.2388947 381.98686147 C344.23933816 380.01272535 344.23978472 378.03858924 344.24023438 376.06445312 C344.2404558 375.08522199 344.24067723 374.10599085 344.24090537 373.09708604 C344.24485336 357.23035775 344.2623095 341.36367539 344.2855939 325.49696484 C344.30932646 309.19283289 344.32177058 292.88872396 344.32293582 276.58457446 C344.3238514 267.43598854 344.32957434 258.28746251 344.34775543 249.13889313 C344.36318199 241.34920002 344.36826174 233.55958533 344.36001733 225.76987985 C344.35612015 221.79875599 344.35699472 217.82778991 344.37107468 213.85668564 C344.38386936 210.21465276 344.38256776 206.57289532 344.37048396 202.93086252 C344.36762073 201.00349951 344.37942027 199.0761315 344.39190602 197.14880681 C344.33310793 186.72301205 343.02160288 176.74103644 337 168 C336.34 167.67 335.68 167.34 335 167 C334.88785156 167.57363281 334.77570313 168.14726563 334.66015625 168.73828125 C327.77701646 198.38526896 306.80390525 221.68699784 282 238 C281.07574219 238.60972656 280.15148437 239.21945312 279.19921875 239.84765625 C266.88167612 247.49603138 252.66004003 252.291249 239 257 C237.72769531 257.48146484 237.72769531 257.48146484 236.4296875 257.97265625 C231.52488943 259.44186114 226.54562885 260.22368812 221.5 261.0625 C220.48035156 261.23587891 219.46070313 261.40925781 218.41015625 261.58789062 C215.60756099 262.06349359 212.8040808 262.53324542 210 263 C208.71674332 263.25787796 208.71674332 263.25787796 207.40756226 263.52096558 C203.17160018 264.11645628 199.05322301 264.13163425 194.78173828 264.11352539 C193.87378006 264.11367142 192.96582184 264.11381744 192.03034973 264.1139679 C189.04364594 264.11327391 186.05700533 264.10550563 183.0703125 264.09765625 C180.99380528 264.09579024 178.91729761 264.0943672 176.84078979 264.09336853 C171.38609595 264.08955774 165.9314289 264.07973975 160.47674561 264.06866455 C154.90637576 264.05841949 149.33600156 264.05386428 143.765625 264.04882812 C132.84373825 264.03811617 121.92187136 264.02105704 111 264 C111.06069264 280.35161546 111.13830315 296.70305132 111.23571491 313.05448532 C111.28056245 320.64780026 111.32000214 328.24106944 111.34643555 335.83447266 C111.36950553 342.45765343 111.40300281 349.08068808 111.44870156 355.70375276 C111.47251333 359.20630911 111.49132053 362.70872184 111.49761391 366.21135712 C111.50485866 370.13422879 111.53539744 374.05674268 111.56762695 377.97949219 C111.56619186 379.12389267 111.56475677 380.26829315 111.5632782 381.44737244 C111.68847733 392.28252739 113.28045963 404.38028983 120.61328125 412.8671875 C133.20235741 425.01316988 152.44660281 426.10004088 169.05859375 426.69140625 C172 427 172 427 175 429 C175 430.65 175 432.3 175 434 C117.25 434 59.5 434 0 434 C0 432.02 0 430.04 0 428 C0.69335449 427.94577881 1.38670898 427.89155762 2.10107422 427.83569336 C29.24637873 425.81217374 29.24637873 425.81217374 52 412 C61.59170507 399.39375905 61.30771855 383.51250274 61.25396729 368.31143188 C61.25627963 366.91056577 61.25946128 365.50970087 61.26342177 364.10883844 C61.2716717 360.31052827 61.26768994 356.51232025 61.26144934 352.71401 C61.25688537 348.59817212 61.2639278 344.48235063 61.26940918 340.36651611 C61.27826168 332.32546949 61.27640016 324.28446038 61.2705839 316.24341233 C61.2660529 309.70688212 61.2654607 303.17036236 61.26763153 296.63383102 C61.267938 295.70081399 61.26824446 294.76779696 61.26856022 293.80650669 C61.26919971 291.91072254 61.26984814 290.0149384 61.2705054 288.11915426 C61.27619605 270.38121413 61.26966971 252.64329473 61.25890467 234.905358 C61.24996147 219.69845097 61.25152998 204.49157446 61.26074219 189.28466797 C61.27145197 171.59753968 61.27565612 153.9104295 61.26951766 136.22329843 C61.2688806 134.33662375 61.26825185 132.44994907 61.26763153 130.56327438 C61.26732298 129.63513204 61.26701443 128.70698969 61.26669653 127.75072182 C61.26497237 121.22196954 61.26787847 114.69322879 61.27259064 108.1644783 C61.27820694 100.20877528 61.27666688 92.25311171 61.26602915 84.29741319 C61.26078391 80.24145736 61.25869623 76.18556726 61.26532745 72.12961197 C61.27131227 68.41279839 61.26797032 64.69611111 61.25737235 60.97930889 C61.25410074 59.00711654 61.26058634 57.03491533 61.26748681 55.06273234 C61.21303877 42.66634406 59.84124548 29.78598501 50.58203125 20.6015625 C44.24523242 15.6820852 37.68685894 13.07586298 30 11 C28.96101563 10.65839844 27.92203125 10.31679688 26.8515625 9.96484375 C21.79849989 8.69901569 16.80916768 8.32715966 11.625 7.9375 C9.63770771 7.78394804 7.65070308 7.62660923 5.6640625 7.46484375 C4.79217285 7.399021 3.9202832 7.33319824 3.02197266 7.26538086 C1 7 1 7 0 6 C-0.04080783 4.00041636 -0.04254356 1.99954746 0 0 Z " fill="#EAE6DB" transform="translate(323,359)"/>
<path d="M0 0 C1.18511673 -0.0033284 2.37023346 -0.0066568 3.59126282 -0.01008606 C6.08793759 -0.01511532 8.58461899 -0.01749563 11.08129883 -0.01733398 C14.80887643 -0.01949964 18.53614722 -0.03764153 22.26367188 -0.05664062 C38.32708889 -0.09455302 54.18523653 0.65635348 70.17578125 2.16796875 C70.95162567 2.23956207 71.72747009 2.3111554 72.52682495 2.38491821 C76.70608716 2.77359268 80.8788477 3.20779184 85.05078125 3.66796875 C86.16839844 3.78527344 87.28601563 3.90257812 88.4375 4.0234375 C95.73748393 4.81377336 102.94450275 5.90255365 110.17578125 7.16796875 C112.26816038 7.51603876 114.36061019 7.86368412 116.453125 8.2109375 C142.94953674 12.71957232 168.73996484 19.30245559 194.42578125 27.16796875 C196.06546875 27.66296875 196.06546875 27.66296875 197.73828125 28.16796875 C203.46519624 29.92166521 209.0526605 31.82153712 214.58813477 34.10864258 C217.5195715 35.308709 220.47566648 36.43180316 223.4375 37.5546875 C239.90695261 43.87276226 256.31112447 50.79740795 271.93847656 59 C274.67289642 60.42748413 277.42054388 61.82818173 280.16796875 63.23046875 C291.13732814 68.85096897 302.00072838 74.53466006 312.4453125 81.08642578 C314.24288532 82.20990879 316.05183433 83.31310742 317.86328125 84.4140625 C335.26622778 95.05522764 352.03731168 106.69772735 368.17578125 119.16796875 C369.07151855 119.85536133 369.07151855 119.85536133 369.98535156 120.55664062 C382.58127235 130.23525006 394.55558869 140.54399071 406.16796875 151.37890625 C408.75674077 153.79150475 411.3957069 156.14084877 414.05078125 158.48046875 C422.97728762 166.48656612 431.70974461 174.99185612 439.44921875 184.16015625 C441.28721578 186.29755551 443.19360328 188.36455047 445.11181641 190.42993164 C450.72671905 196.48019406 456.00296891 202.73308984 461.17578125 209.16796875 C462.18363441 210.39686894 463.1928328 211.62466668 464.203125 212.8515625 C488.70008239 242.64665611 509.67796147 274.86454893 527.90551758 308.83691406 C529.03817062 310.91544015 530.20809723 312.96430568 531.40234375 315.0078125 C532.89921617 317.67514684 534.06760534 320.18061166 535.11328125 323.04296875 C536.75176655 327.29399951 538.75642208 331.14320214 541.01953125 335.08984375 C543.04524503 338.73065366 544.54493569 342.5674392 546.0703125 346.4375 C547.81157456 350.84268489 549.6180069 355.1834359 551.61328125 359.48046875 C556.06871757 369.19522746 559.59996089 379.20373864 562.8671875 389.3671875 C563.83181445 392.27784108 564.94869355 395.10117898 566.11328125 397.9375 C568.26758346 403.25998266 569.97573631 408.66764193 571.61328125 414.16796875 C571.91258545 415.16401123 572.21188965 416.16005371 572.52026367 417.1862793 C574.38868939 423.43783897 576.21999192 429.69982962 577.98828125 435.98046875 C578.28013306 437.00817383 578.28013306 437.00817383 578.57788086 438.05664062 C579.81123009 442.51471247 580.77894 446.99178792 581.65991211 451.53198242 C582.18877485 454.23436339 582.75165678 456.92764996 583.32421875 459.62109375 C592.31499912 502.03380584 596.55914913 543.58162981 596.49145508 586.90209961 C596.48681127 590.12294433 596.493821 593.34341243 596.51196289 596.56420898 C596.62944036 617.64939396 595.82221201 638.22713869 593.17578125 659.16796875 C593.0728476 660.00222382 592.96991394 660.83647888 592.86386108 661.6960144 C592.34592374 665.84367583 591.75699683 669.9756227 591.11328125 674.10546875 C590.95279297 675.19923828 590.79230469 676.29300781 590.62695312 677.41992188 C589.80856217 682.82656091 588.76522809 687.94075027 587.17578125 693.16796875 C586.85027488 694.89108581 586.5579581 696.62083713 586.30078125 698.35546875 C585.38168416 704.11076717 584.3053533 709.82600403 583.17578125 715.54296875 C583.00965332 716.39914795 582.84352539 717.25532715 582.67236328 718.13745117 C581.77850468 722.62212524 580.65268261 726.83464277 579.17578125 731.16796875 C578.69435215 732.93965596 578.22585943 734.71487666 577.765625 736.4921875 C574.69004861 748.36238728 571.36479763 760.09448155 567.48828125 771.73046875 C567.12017334 772.84059326 566.75206543 773.95071777 566.37280273 775.09448242 C564.27809577 781.2842259 561.91864685 787.23983988 559.17578125 793.16796875 C558.53750705 794.68327897 557.90944107 796.20302243 557.30078125 797.73046875 C556.80191406 798.98150391 556.80191406 798.98150391 556.29296875 800.2578125 C555.45993024 802.42779044 554.65749042 804.6095621 553.87109375 806.796875 C550.65171709 815.7476333 546.83562822 824.19065669 542.46582031 832.63476562 C540.95887972 835.59389045 539.50007684 838.57461775 538.04296875 841.55859375 C530.39889862 857.16151547 522.22305045 872.32137331 513.17578125 887.16796875 C512.40669434 888.43326416 512.40669434 888.43326416 511.62207031 889.72412109 C492.63207635 920.79135585 470.25910151 953.18497522 443.84643555 978.49658203 C442.19700413 980.14673657 440.69848078 981.86020852 439.19140625 983.640625 C434.77307209 988.72138941 430.02866133 993.46543917 425.26049805 998.21362305 C423.74086457 999.72789455 422.22665608 1001.24744305 420.71289062 1002.76757812 C415.90594844 1007.5778092 411.0506202 1012.28328312 405.88110352 1016.70776367 C403.48566198 1018.75889264 401.1795304 1020.90323003 398.86328125 1023.04296875 C393.46080605 1027.96374177 387.87340544 1032.59497365 382.17578125 1037.16796875 C381.04379339 1038.09186324 379.91230638 1039.01637165 378.78125 1039.94140625 C363.58960919 1052.30760325 347.59528215 1063.49965541 331.17578125 1074.16796875 C330.40089355 1074.67215332 329.62600586 1075.17633789 328.82763672 1075.69580078 C317.5335392 1083.01385575 306.04465541 1089.82618488 294.17578125 1096.16796875 C293.31001465 1096.63170898 292.44424805 1097.09544922 291.55224609 1097.57324219 C277.47867785 1105.08282396 263.19557962 1112.09752184 248.77685547 1118.91772461 C246.48648164 1120.01862609 244.22648397 1121.16233632 241.96875 1122.328125 C238.06862869 1124.29293422 234.06175871 1125.72187102 229.92578125 1127.10546875 C224.89196619 1128.83130137 219.94124923 1130.62319393 215.05078125 1132.73046875 C208.23414519 1135.63989481 201.23826085 1137.93836487 194.17578125 1140.16796875 C193.24717285 1140.46413086 192.31856445 1140.76029297 191.36181641 1141.06542969 C183.44984125 1143.55062478 175.47812472 1145.72897907 167.44482422 1147.77783203 C165.41281428 1148.29627713 163.38212204 1148.819656 161.3515625 1149.34375 C127.13386042 1158.13317727 92.57428069 1163.45964876 57.3571167 1166.00762939 C55.35669095 1166.15467096 53.35723293 1166.31472716 51.35791016 1166.47607422 C40.59211069 1167.29611679 29.84238411 1167.40914768 19.05078125 1167.41796875 C18.075112 1167.41930817 17.09944275 1167.42064758 16.09420776 1167.42202759 C-10.7044054 1167.4141289 -37.35090353 1165.38619468 -63.82421875 1161.16796875 C-64.94248047 1160.99539551 -66.06074219 1160.82282227 -67.21289062 1160.64501953 C-93.89750401 1156.50983051 -119.92199145 1150.79558992 -145.82421875 1143.16796875 C-147.18909424 1142.77037354 -147.18909424 1142.77037354 -148.58154297 1142.36474609 C-152.75032227 1141.13727646 -156.82444347 1139.88215816 -160.82421875 1138.16796875 C-164.1241593 1136.80674327 -167.39358492 1135.65427598 -170.82421875 1134.66796875 C-175.98191268 1133.16928798 -180.86870408 1131.23003892 -185.82421875 1129.16796875 C-187.15339439 1128.62178353 -188.4828432 1128.07626283 -189.8125 1127.53125 C-192.75876824 1126.32310392 -195.70245181 1125.10893389 -198.64453125 1123.890625 C-201.13352386 1122.86094911 -203.6263883 1121.8484284 -206.12890625 1120.8515625 C-212.58682494 1118.25640419 -218.64581453 1115.21848163 -224.71875 1111.81640625 C-227.34343497 1110.42317725 -229.97243622 1109.25226623 -232.7097168 1108.10644531 C-257.43101633 1097.13442414 -280.60080376 1082.46155652 -302.82421875 1067.16796875 C-303.53239746 1066.68118652 -304.24057617 1066.1944043 -304.97021484 1065.69287109 C-328.6677942 1049.33577459 -351.11637673 1031.29701084 -372.19677734 1011.68212891 C-374.00342337 1010.00123802 -375.81430893 1008.32496973 -377.625 1006.6484375 C-386.11159269 998.77620649 -394.50366674 990.94983365 -402.05078125 982.15625 C-403.85780031 980.13031894 -405.75127714 978.24566506 -407.69921875 976.35546875 C-411.57227198 972.53435301 -414.96255919 968.42969766 -418.36328125 964.1875 C-420.05953144 962.10622794 -421.76519006 960.07010066 -423.53515625 958.0546875 C-446.18541717 932.26284001 -465.72825649 903.21101423 -482.58496094 873.35400391 C-483.7268022 871.33981031 -484.88510697 869.33640184 -486.05078125 867.3359375 C-492.67743215 855.88035485 -498.49548715 844.01768424 -504.34570312 832.15185547 C-505.74359172 829.3306873 -507.16535004 826.52263974 -508.58984375 823.71484375 C-510.21886211 820.46007815 -511.66127536 817.24825248 -512.82421875 813.79296875 C-514.17134819 809.94556708 -515.61767856 806.1753859 -517.19921875 802.41796875 C-517.62332031 801.40605469 -518.04742188 800.39414062 -518.484375 799.3515625 C-519.38289845 797.21658696 -520.28660944 795.08378774 -521.1953125 792.953125 C-525.7554422 781.96679628 -529.33816787 770.69766824 -532.84375 759.33642578 C-533.46143466 757.34033226 -534.08554038 755.34620352 -534.71875 753.35498047 C-553.44160627 694.4613384 -560.23420972 631.78985756 -558.82421875 570.16796875 C-558.80701782 569.39688782 -558.78981689 568.62580688 -558.77209473 567.83135986 C-557.97664683 534.22152946 -553.54346959 501.40580904 -547.19921875 468.41796875 C-547.05932526 467.68751343 -546.91943176 466.95705811 -546.77529907 466.20446777 C-545.17090212 457.9138832 -543.24339066 449.79688593 -540.83618164 441.69580078 C-539.7792838 438.01131978 -538.87499071 434.31000465 -537.984375 430.58203125 C-535.8112831 421.64759392 -532.99940386 412.93321306 -530.13305664 404.20068359 C-529.25217311 401.51385306 -528.38243944 398.82358208 -527.51367188 396.1328125 C-526.94987043 394.40213132 -526.38544057 392.6716547 -525.8203125 390.94140625 C-525.43582191 389.75072037 -525.43582191 389.75072037 -525.04356384 388.53598022 C-523.61301265 384.20185813 -521.93260474 380.22993302 -519.82421875 376.16796875 C-519.29193156 374.80382881 -518.78774019 373.42807485 -518.32421875 372.0390625 C-518.07671875 371.31396484 -517.82921875 370.58886719 -517.57421875 369.84179688 C-517.073041 368.34739968 -516.57304621 366.85260524 -516.07421875 365.35742188 C-514.6813009 361.28386263 -513.09598661 357.84520365 -510.82421875 354.16796875 C-509.97239076 352.05842607 -509.16154369 349.93199366 -508.38671875 347.79296875 C-505.75124033 340.76239608 -505.75124033 340.76239608 -503.76171875 337.48046875 C-502.2346544 334.86968131 -501.20872729 332.68033379 -500.16796875 329.88671875 C-497.37613426 322.81171541 -493.88302596 316.10011523 -490.38671875 309.35546875 C-490.03285095 308.67133911 -489.67898315 307.98720947 -489.31439209 307.28234863 C-483.04553519 295.19886415 -476.30518405 283.54763344 -468.82421875 272.16796875 C-468.10379395 271.0687207 -467.38336914 269.96947266 -466.64111328 268.83691406 C-456.85383592 253.92733777 -446.87976938 239.22560628 -435.88671875 225.16796875 C-435.28118164 224.39251709 -434.67564453 223.61706543 -434.05175781 222.81811523 C-427.02857671 213.84644103 -419.86943866 205.10268641 -412.15234375 196.7109375 C-410.21727613 194.59729821 -408.32213578 192.46137027 -406.44921875 190.29296875 C-398.78451364 181.50790071 -390.80130164 173.0517719 -382.57421875 164.79296875 C-381.92525635 164.13941406 -381.27629395 163.48585937 -380.60766602 162.8125 C-376.76324778 158.98027697 -372.80330292 155.34055352 -368.69482422 151.79345703 C-366.07684027 149.51852396 -363.54963621 147.156959 -361.01171875 144.79296875 C-355.46762048 139.67796669 -349.71515973 134.88072153 -343.82421875 130.16796875 C-342.70516061 129.25720856 -341.58669987 128.34571399 -340.46875 127.43359375 C-325.83319746 115.54208267 -310.66602613 104.39768882 -294.82421875 94.16796875 C-294.01645996 93.64235352 -293.20870117 93.11673828 -292.37646484 92.57519531 C-260.02124494 71.54880032 -225.95886635 52.88123028 -189.82421875 39.16796875 C-188.61765625 38.70261719 -187.41109375 38.23726562 -186.16796875 37.7578125 C-182.06798971 36.18742825 -177.94968669 34.66996374 -173.82421875 33.16796875 C-172.98391113 32.86101074 -172.14360352 32.55405273 -171.27783203 32.23779297 C-157.2087331 27.13077876 -143.02303445 22.78786806 -128.56933594 18.90673828 C-126.14315875 18.2538023 -123.72125475 17.58776279 -121.30078125 16.9140625 C-115.11367957 15.21355078 -108.98950729 13.74165334 -102.65869141 12.69628906 C-99.79825205 12.16312879 -97.02401463 11.47227415 -94.2109375 10.73046875 C-88.28276115 9.23313418 -82.36832139 8.13735217 -76.32421875 7.23046875 C-75.24052002 7.06571045 -74.15682129 6.90095215 -73.0402832 6.73120117 C-63.05586695 5.26198525 -53.04119717 4.09323349 -43.01171875 2.98046875 C-42.25117187 2.89588409 -41.490625 2.81129944 -40.70703125 2.72415161 C-27.1347812 1.22556123 -13.66699489 0.01384967 0 0 Z M-44.82421875 25.16796875 C-47.1196317 25.45052136 -49.41520681 25.7317595 -51.7109375 26.01171875 C-64.97328559 27.7035925 -78.0890993 30.07269062 -91.19921875 32.66796875 C-92.29515854 32.88326233 -92.29515854 32.88326233 -93.41323853 33.10290527 C-101.96456101 34.7946385 -110.3312805 36.77350806 -118.69775391 39.24853516 C-122.14681007 40.2628367 -125.61407899 41.16304067 -129.09912109 42.04321289 C-136.76483697 43.98024862 -144.15093162 46.22117703 -151.5625 48.984375 C-154.81115801 50.16322934 -158.07470922 51.18267559 -161.38671875 52.16796875 C-166.99022307 53.8531302 -172.4142934 55.86112101 -177.8515625 58.01953125 C-180.81595437 59.16477594 -183.80221366 60.18615488 -186.82421875 61.16796875 C-186.82421875 61.82796875 -186.82421875 62.48796875 -186.82421875 63.16796875 C-187.97083984 63.27431641 -187.97083984 63.27431641 -189.140625 63.3828125 C-194.33003373 64.48893249 -198.92525215 66.57936033 -203.76171875 68.73046875 C-204.84348389 69.21008057 -205.92524902 69.68969238 -207.03979492 70.18383789 C-228.32332049 79.77762248 -249.11041522 90.65672787 -268.82421875 103.16796875 C-269.6332666 103.6789209 -270.44231445 104.18987305 -271.27587891 104.71630859 C-294.724222 119.58231134 -317.22901157 135.66082626 -338.25 153.81591797 C-339.86932583 155.20670991 -341.50134092 156.58125647 -343.13671875 157.953125 C-359.29591568 171.55977459 -375.46359649 186.09714993 -389.16015625 202.22265625 C-391.12560889 204.52029807 -393.16151746 206.74669998 -395.19921875 208.98046875 C-399.04228173 213.24406892 -402.71744609 217.61349148 -406.32421875 222.078125 C-408.14425447 224.3275754 -409.97640757 226.56270667 -411.82421875 228.7890625 C-434.46750379 256.17484821 -453.77925884 286.26836012 -470.46044922 317.60791016 C-471.74095017 320.01165755 -473.03270237 322.40895783 -474.328125 324.8046875 C-481.67021687 338.44348414 -488.38260825 352.35361367 -493.69921875 366.91796875 C-495.46880111 371.71914403 -497.32756326 376.41071149 -499.51171875 381.04296875 C-501.45569892 385.17936106 -502.87847558 389.26841654 -504.05078125 393.68359375 C-504.84637228 396.23912859 -505.8965605 398.62049256 -506.96777344 401.06982422 C-516.97225451 425.57909172 -522.06000867 452.24477382 -527.20751953 478.09130859 C-527.69907765 480.54365038 -528.20566367 482.9913002 -528.7265625 485.4375 C-530.57740879 494.5116491 -531.72898509 503.6723833 -532.88671875 512.85546875 C-533.04930176 514.14364502 -533.21188477 515.43182129 -533.37939453 516.7590332 C-533.79649662 520.16607409 -534.19262139 523.5740811 -534.57366943 526.98526001 C-534.7406172 528.43965767 -534.91578558 529.89313537 -535.09918213 531.34555054 C-537.21078347 548.10247514 -537.13269574 564.87450658 -537.08496094 581.73266602 C-537.07357669 585.78769269 -537.08033963 589.84245661 -537.09183311 593.89747429 C-537.13330803 611.08443367 -536.89449299 628.08121823 -534.82421875 645.16796875 C-534.65516096 646.67753143 -534.48717242 648.18721428 -534.3203125 649.69702148 C-533.82992579 654.02764243 -533.27931599 658.34851509 -532.69921875 662.66796875 C-532.59639587 663.43646149 -532.493573 664.20495422 -532.38763428 664.99673462 C-527.64498239 699.90967534 -519.23323998 734.14337978 -507.75439453 767.43603516 C-506.87464181 770.01987583 -506.02746476 772.61142781 -505.1953125 775.2109375 C-502.30314839 784.21899779 -498.97215605 792.64855262 -494.82421875 801.16796875 C-493.45534511 804.28900065 -492.12455496 807.41762158 -490.8581543 810.58154297 C-487.37246936 819.17595575 -483.36205837 827.45048666 -479.19921875 835.73046875 C-478.8459552 836.4348407 -478.49269165 837.13921265 -478.12872314 837.8649292 C-463.39303212 867.19268205 -445.84518575 895.14665259 -425.82421875 921.16796875 C-425.30988281 921.84085938 -424.79554688 922.51375 -424.265625 923.20703125 C-413.87001743 936.79574692 -403.02424002 949.83205444 -391.39453125 962.37890625 C-389.06599737 964.90561322 -386.78550542 967.46712924 -384.51171875 970.04296875 C-376.7122963 978.72613871 -368.44971881 987.1302303 -359.53515625 994.671875 C-357.76569365 996.21914481 -356.14447427 997.85272183 -354.51171875 999.54296875 C-350.78821893 1003.33432278 -346.6960341 1006.60296182 -342.55859375 1009.9296875 C-340.19752797 1011.86238849 -337.94304583 1013.85243025 -335.69921875 1015.91796875 C-329.47056658 1021.51376321 -322.72331837 1026.46387708 -316.03955078 1031.49658203 C-313.91871827 1033.09667233 -311.80607601 1034.70697394 -309.6953125 1036.3203125 C-300.96365145 1042.96997165 -292.04760818 1049.2209874 -282.82421875 1055.16796875 C-282.10927246 1055.63170898 -281.39432617 1056.09544922 -280.65771484 1056.57324219 C-263.77835233 1067.49539723 -246.4113768 1077.40125542 -228.57421875 1086.66796875 C-227.44371094 1087.25562012 -226.31320312 1087.84327148 -225.1484375 1088.44873047 C-217.49342676 1092.39142596 -209.80260588 1096.07850268 -201.76171875 1099.16796875 C-198.8139612 1100.3290702 -195.995252 1101.55584777 -193.19921875 1103.04296875 C-187.35665325 1106.04637591 -181.10336627 1108.13162088 -174.94433594 1110.38574219 C-172.91190494 1111.13561654 -170.88662543 1111.9017638 -168.86328125 1112.67578125 C-150.48170641 1119.70159699 -131.88192724 1125.25742707 -112.82421875 1130.16796875 C-111.56319336 1130.49635742 -110.30216797 1130.82474609 -109.00292969 1131.16308594 C-99.83855174 1133.52419302 -90.6423452 1135.49764419 -81.32421875 1137.16796875 C-80.62710785 1137.29392426 -79.92999695 1137.41987976 -79.21176147 1137.5496521 C-68.55497712 1139.46310955 -57.87594745 1141.10503358 -47.13671875 1142.48046875 C-45.31720703 1142.71926758 -45.31720703 1142.71926758 -43.4609375 1142.96289062 C-23.61336653 1145.37477425 -3.60582324 1145.35451064 16.359375 1145.35327148 C20.27485093 1145.35545429 24.19004238 1145.37368317 28.10546875 1145.39257812 C51.90426496 1145.44757823 75.46500722 1144.17372693 98.98828125 1140.48046875 C100.24250381 1140.28830276 100.24250381 1140.28830276 101.52206421 1140.09225464 C117.94600751 1137.56500362 134.04565193 1134.16785124 150.17578125 1130.16796875 C151.33319824 1129.88840332 152.49061523 1129.60883789 153.68310547 1129.32080078 C169.78396771 1125.42576095 185.46103609 1120.6426694 201.11083984 1115.21948242 C205.21150167 1113.81263596 209.33194301 1112.46802965 213.45532227 1111.12939453 C217.2263605 1109.79668803 220.8080866 1108.13793477 224.42602539 1106.43896484 C227.14859184 1105.18053628 229.89504925 1104.02764402 232.671875 1102.89453125 C286.59980581 1080.53285741 335.65436261 1049.13466872 380.05078125 1011.35546875 C380.56697021 1010.9186377 381.08315918 1010.48180664 381.61499023 1010.03173828 C392.85683672 1000.40557806 403.44725067 990.08307358 413.90673828 979.62231445 C415.9324288 977.59882843 417.96603461 975.58352341 420 973.56835938 C426.46530347 967.13026984 432.68297187 960.6917136 438.31591797 953.50146484 C440.29568177 951.01753436 442.39432381 948.6867809 444.55078125 946.35546875 C449.58774293 940.81219203 454.18561566 934.97135673 458.74316406 929.03320312 C459.68431686 927.807844 460.62888108 926.58509608 461.57714844 925.36523438 C481.06384227 900.27798065 497.81955594 873.0781137 512.65771484 845.02783203 C514.10330664 842.30450261 515.56786486 839.59237476 517.0390625 836.8828125 C521.20869215 829.15995954 525.04933168 821.55534838 528.03515625 813.28125 C530.46606263 806.6462076 533.3091151 800.1378813 536.31616211 793.74267578 C539.59351323 786.73146498 542.25422211 779.6194259 544.73828125 772.29296875 C545.11146484 771.21144531 545.48464844 770.12992188 545.86914062 769.015625 C558.23086385 732.94089183 567.62822092 695.07483157 572.17578125 657.16796875 C572.3253125 655.94561523 572.47484375 654.72326172 572.62890625 653.46386719 C575.23122305 630.90110749 575.46559802 608.30698155 575.4858551 585.62204361 C575.48826005 583.31331818 575.49358903 581.00461207 575.49914551 578.69589233 C575.50611081 574.99400307 575.50000748 571.29233109 575.48411369 567.59047127 C575.47685737 565.57037183 575.47770559 563.55024823 575.47889709 561.53013611 C575.41913601 553.51904293 574.76465242 545.79734886 573.64390564 537.87971497 C573.16237915 534.06170381 572.92580245 530.32740538 572.75390625 526.484375 C572.23210152 516.58169601 570.56726583 506.87430381 568.92578125 497.10546875 C568.76860626 496.15675903 568.61143127 495.20804932 568.44949341 494.23059082 C566.10801709 480.11064839 563.59579609 466.07224708 560.17578125 452.16796875 C559.96663086 451.2960791 559.75748047 450.42418945 559.54199219 449.52587891 C556.51079134 436.97417761 552.87261629 424.62231452 549.05078125 412.29296875 C548.83886139 411.60470001 548.62694153 410.91643127 548.40859985 410.20730591 C546.2856358 403.33638853 544.10330589 396.58687665 541.046875 390.06445312 C539.74465018 387.22934034 538.74938287 384.30480668 537.73828125 381.35546875 C535.80003651 375.83710222 533.69497459 370.43463409 531.40234375 365.0546875 C530.62789294 363.23201505 529.87031142 361.40199741 529.13671875 359.5625 C521.40514824 340.28919654 511.61586611 322.084203 501.17578125 304.16796875 C500.10134086 302.30221095 499.02712043 300.43632647 497.953125 298.5703125 C479.33170151 266.4258516 457.49744219 236.1494173 432.4609375 208.68823242 C431.07008287 207.15428025 429.68754337 205.6126624 428.3203125 204.05761719 C421.78042947 196.64640244 414.84395863 189.65000956 407.85644531 182.66333008 C405.80634107 180.61103451 403.76439374 178.5508496 401.72265625 176.49023438 C395.23412169 169.97453798 388.75075687 163.69626255 381.50268555 158.02124023 C379.02042956 156.04423832 376.69244368 153.94728047 374.36328125 151.79296875 C344.06645034 124.30228073 307.81168168 102.76365798 271.87548828 83.61181641 C269.46726899 82.32386118 267.06756935 81.02199501 264.671875 79.7109375 C258.7257366 76.46831584 252.83357503 73.46688415 246.484375 71.08984375 C244.03710875 70.11259361 241.75828981 68.95531927 239.42578125 67.73046875 C234.30305049 65.1046665 229.00447838 63.23748867 223.5703125 61.359375 C220.62955222 60.32723244 217.74713245 59.2225222 214.86328125 58.04296875 C211.1586562 56.53345432 207.43049904 55.23646402 203.625 54.0078125 C200.76841926 53.02828322 197.98081629 51.91149825 195.17578125 50.79296875 C190.28355621 48.89784624 185.36753219 47.24974821 180.328125 45.78515625 C179.59270981 45.57048706 178.85729462 45.35581787 178.09959412 45.13464355 C170.02417948 42.80109219 161.89414544 40.69973056 153.73828125 38.66796875 C152.96463226 38.4744281 152.19098328 38.28088745 151.39389038 38.08148193 C138.46314257 34.8578673 125.49275186 32.03287001 112.36303711 29.73071289 C110.01257867 29.31571429 107.66478623 28.88554782 105.31860352 28.44702148 C56.85356482 19.45584587 4.0002416 18.49210324 -44.82421875 25.16796875 Z " fill="#780F10" transform="translate(607.82421875,39.83203125)"/>
<path d="M0 0 C115.35934211 0 115.35934211 0 148.3125 30.8125 C162.55056312 46.08055067 171.00103554 65.70095219 175 86 C175.18546387 86.92925293 175.37092773 87.85850586 175.56201172 88.81591797 C177.1128934 97.5538793 177.30747922 106.12075867 177.26074219 114.96484375 C177.25004527 117.36484208 177.26068732 119.76408706 177.2734375 122.1640625 C177.30725185 156.3576114 168.36962468 188.28372347 144 213 C143.26910156 213.74378906 142.53820312 214.48757813 141.78515625 215.25390625 C135.63744489 221.10396306 128.53491544 225.20954661 121 229 C120.0728418 229.47034668 120.0728418 229.47034668 119.12695312 229.95019531 C83.51120366 247.50078393 36.34263679 242 0 242 C0 162.14 0 82.28 0 0 Z " fill="#000000" transform="translate(434,370)"/>
<path d="M0 0 C93.5 0 93.5 0 118 7 C119.74023438 7.4640625 119.74023438 7.4640625 121.515625 7.9375 C136.67142711 12.24961106 151.37619551 19.18964776 163 30 C164.12728516 30.99193359 164.12728516 30.99193359 165.27734375 32.00390625 C183.28058909 48.7146109 190.17312372 72.97345995 191.16015625 96.87890625 C191.8830425 124.40753169 185.6578398 149.69989974 167.5 170.921875 C146.98985604 192.53077667 119.40144809 200.35969753 90.64208984 203.69042969 C87.09225304 204.10635956 83.54652092 204.55668488 80 205 C53.6 205 27.2 205 0 205 C0 137.35 0 69.7 0 0 Z " fill="#010101" transform="translate(716,708)"/>
<path d="M0 0 C78 0 78 0 98 5 C99.38496145 5.32615783 100.77026902 5.6508584 102.15625 5.97265625 C121.69042886 10.75060779 139.74870149 21.08674385 151.22265625 38.04296875 C161.45120777 55.06058083 165.40738009 70.95505969 165.3125 90.8125 C165.30512817 92.64953491 165.30512817 92.64953491 165.29760742 94.52368164 C165.00158481 117.45101244 158.45901015 138.48585078 142 155 C141.32324219 155.69996094 140.64648438 156.39992188 139.94921875 157.12109375 C105.5899002 190.31568963 38.8582095 183 0 183 C0 122.61 0 62.22 0 0 Z " fill="#010101" transform="translate(716,514)"/>
<path d="M0 0 C2.14224377 2.14224377 1.24040101 6.85847919 1.25 9.8125 C1.23763044 37.27045991 -6.3000754 66.22353301 -25.6171875 86.62109375 C-35.55169067 96.53931085 -44.86613396 103.13233758 -58.1171875 107.921875 C-60.89684726 108.89046635 -60.89684726 108.89046635 -62.98046875 110.05078125 C-65.73778053 111.34677112 -68.4487905 111.84775465 -71.4375 112.4375 C-72.07349121 112.56310303 -72.70948242 112.68870605 -73.36474609 112.81811523 C-80.15390065 114.11209174 -86.99871545 115.03706797 -93.85327148 115.90991211 C-102.04028829 116.88126758 -102.04028829 116.88126758 -108.46484375 121.72265625 C-109.30108245 122.82693725 -110.12487848 123.94072553 -110.9375 125.0625 C-111.58501221 125.93007935 -111.58501221 125.93007935 -112.24560547 126.81518555 C-115.66309438 131.4312887 -118.91866381 136.1525321 -122 141 C-120.9275 140.690625 -119.855 140.38125 -118.75 140.0625 C-115.12169832 139.11682563 -111.74189002 138.87821197 -108 138.75 C-102.67724079 138.36980291 -99.97829186 137.12463369 -95.984375 133.68359375 C-81.24193274 121.17573428 -63.5361155 119.67626984 -45 121 C-26.0651652 124.15225596 -10.16444354 140.06088239 0.60351562 154.98779297 C3.11279769 158.60344031 5.46638708 162.30087303 7.75 166.0625 C8.19279297 166.77664063 8.63558594 167.49078125 9.09179688 168.2265625 C10.79283376 171.13238564 11.92167952 173.3822362 12.34765625 176.7421875 C9.99478045 180.68410695 5.87232141 181.58424837 1.6875 183.0625 C0.26812134 183.57683594 0.26812134 183.57683594 -1.17993164 184.1015625 C-23.80060847 192.01344082 -48.88905009 195.50440221 -71.125 184.8125 C-77.39573991 181.52848516 -82.7487027 177.72901638 -88 173 C-88.59941406 172.48179687 -89.19882812 171.96359375 -89.81640625 171.4296875 C-93.92301286 167.63750785 -97.20504686 163.24218055 -100.5 158.75 C-101.18739258 157.82743408 -101.18739258 157.82743408 -101.88867188 156.88623047 C-103.01004866 155.31431593 -104.01516156 153.6608716 -105 152 C-104.67 151.01 -104.34 150.02 -104 149 C-72.52051185 144.22220743 -42.40058236 151.40223184 -14 165 C-34.31333858 151.50562666 -57.53263111 142.57416566 -82 141 C-82.70737305 140.94021973 -83.41474609 140.88043945 -84.14355469 140.81884766 C-99.89046347 139.58440619 -113.87463461 143.98757314 -128.57421875 149.2890625 C-131 150 -131 150 -133 149 C-132.35843054 143.48250265 -132.35843054 143.48250265 -130.375 140.8125 C-127.60507696 135.14674832 -129.27102136 129.31664743 -131.09765625 123.51171875 C-138.44590416 104.12790045 -149.8263918 88.0102448 -164 73 C-165.0828125 71.82050781 -165.0828125 71.82050781 -166.1875 70.6171875 C-171.30721456 65.23802795 -176.8038915 60.64231795 -182.6875 56.125 C-183.40035156 55.57739014 -184.11320313 55.02978027 -184.84765625 54.46557617 C-189.07613481 51.28095413 -193.3468858 48.52475659 -198 46 C-196.89691944 47.1450714 -196.89691944 47.1450714 -195.05859375 48.50390625 C-173.47568447 65.45501384 -147.11745898 92.49131557 -142.34375 120.90625 C-142.2303125 121.9271875 -142.116875 122.948125 -142 124 C-147.85704655 124.17889169 -153.04809623 123.6268999 -158.75 122.3125 C-159.53568359 122.13315918 -160.32136719 121.95381836 -161.13085938 121.76904297 C-180.3238438 117.18300431 -196.23421879 107.12081561 -206.96875 90.359375 C-218.63863458 71.05918128 -222.6781998 47.34291573 -222 25 C-210.19037477 25.29561014 -199.38686871 26.88458941 -188 30 C-186.31970703 30.43119141 -186.31970703 30.43119141 -184.60546875 30.87109375 C-172.03291302 34.35916408 -159.7258598 40.21345866 -150 49 C-149.32839844 49.56847656 -148.65679688 50.13695312 -147.96484375 50.72265625 C-138.48115021 59.32924519 -130.89274353 73.13018215 -129.83416748 86.01913452 C-129.63922807 91.94048384 -129.91101054 97.86347411 -130.1574707 103.77978516 C-130.56396329 114.43103607 -129.7806736 122.23976993 -125 132 C-120.92032791 130.15091663 -118.50299466 127.46602245 -115.6875 124.0625 C-115.19894531 123.47766846 -114.71039062 122.89283691 -114.20703125 122.2902832 C-110.73383104 118.06076608 -107.71640266 113.68379719 -104.8671875 109.0078125 C-95.19219462 93.42257292 -84.05408451 78.80732796 -72 65 C-71.55978516 64.4951709 -71.11957031 63.9903418 -70.66601562 63.47021484 C-66.09956268 58.26384417 -61.48224599 53.31337214 -56.171875 48.86328125 C-54.00815998 47.00700056 -51.94361341 45.06420003 -49.87548828 43.1027832 C-43.06181152 36.6760204 -35.73044391 31.27179681 -28 26 C-44.11828859 34.24344905 -58.3461068 44.71528903 -71.6875 56.91015625 C-73.64985514 58.68356841 -75.64661409 60.38150245 -77.6875 62.0625 C-81.54925138 65.35977264 -84.73664505 69.12199373 -88 73 C-88.85980469 73.99515625 -89.71960938 74.9903125 -90.60546875 76.015625 C-97.26918086 83.75064357 -103.32651441 91.77360221 -109.19921875 100.12890625 C-109.91722656 101.13824219 -110.63523437 102.14757812 -111.375 103.1875 C-112.02210938 104.10917969 -112.66921875 105.03085937 -113.3359375 105.98046875 C-113.88507813 106.64691406 -114.43421875 107.31335938 -115 108 C-115.66 108 -116.32 108 -117 108 C-117.66147198 78.36605512 -114.59834236 51.69126655 -93.2578125 29.265625 C-92.51273438 28.51796875 -91.76765625 27.7703125 -91 27 C-90.33742188 26.31421875 -89.67484375 25.6284375 -88.9921875 24.921875 C-66.4562545 3.15713362 -30.07301079 -2.58339023 0 0 Z " fill="#53683C" transform="translate(773,201)"/>
<path d="M0 0 C0.75651352 -0.00088371 1.51302704 -0.00176743 2.29246521 -0.00267792 C23.17180581 -0.02421947 43.96757745 0.30097166 64.8125 1.625 C65.80974091 1.68812378 66.80698181 1.75124756 67.83444214 1.81628418 C78.10479137 2.48623185 88.33887818 3.34704611 98.5569458 4.58847046 C103.27792906 5.15458998 107.93997352 5.44664493 112.6875 5.625 C121.76294026 6.03904835 130.6102562 7.62636851 139.54296875 9.21484375 C145.00356343 10.17935711 150.48052943 10.9680764 155.97143555 11.73852539 C174.85281381 14.42779641 193.3855757 17.87807148 211.87060547 22.57861328 C215.02679296 23.36579953 218.19570678 24.07992883 221.37060547 24.78686523 C229.74456661 26.66324183 237.85866592 29.14481123 246.015625 31.80078125 C251.22102283 33.48714534 256.48293847 34.91099645 261.77734375 36.29296875 C264.57245175 37.2534196 266.2656464 38.43837553 268.5625 40.25 C263.42664054 39.23790484 258.29750732 38.2015506 253.1796875 37.1015625 C234.20053999 33.03283454 215.20982401 29.67953507 195.92236328 27.46655273 C184.3331554 26.13481824 172.77385808 24.58776077 161.21044922 23.05102539 C157.38950786 22.54324643 153.56803094 22.03965947 149.74624634 21.53826904 C147.6299882 21.25890889 145.51459265 20.97359405 143.39916992 20.68798828 C134.27845993 19.47688054 125.18570504 18.7494269 116 18.25 C113.18725309 18.08870835 110.37482372 17.92240615 107.5625 17.75390625 C106.87381332 17.71278214 106.18512665 17.67165802 105.47557068 17.62928772 C100.51819766 17.32608051 95.57390546 16.93731685 90.62890625 16.47631836 C70.47285006 14.61578352 50.35611016 14.08927429 30.12109375 14.08203125 C27.93571453 14.07879927 25.75033549 14.07543394 23.56495667 14.07194519 C19.01278179 14.06601464 14.46062572 14.06409873 9.90844727 14.06469727 C5.32963067 14.0647781 0.75091504 14.05789253 -3.82788086 14.04418945 C-43.43286145 13.92784615 -82.53753946 15.57974365 -121.97424316 19.1104126 C-125.0939409 19.38744202 -128.21435375 19.65593555 -131.3347826 19.92458439 C-134.36407196 20.18623444 -137.39295752 20.45232545 -140.42172813 20.71990776 C-141.8526205 20.84592022 -143.2836212 20.97070895 -144.71473122 21.09422493 C-146.67455145 21.26417187 -148.63380477 21.4406196 -150.59301758 21.61743164 C-152.25642937 21.76493614 -152.25642937 21.76493614 -153.95344543 21.91542053 C-156.37570073 21.98607066 -156.37570073 21.98607066 -157.4375 23.25 C-158.90220333 23.47865794 -160.37624644 23.64776943 -161.8515625 23.79296875 C-162.819729 23.89383789 -163.78789551 23.99470703 -164.78540039 24.09863281 C-165.86684326 24.21045898 -166.94828613 24.32228516 -168.0625 24.4375 C-196.4442181 27.57431062 -224.50027036 32.28116743 -252.34594727 38.58911133 C-255.3662539 39.23476955 -258.38735192 39.76700973 -261.4375 40.25 C-261.4375 39.59 -261.4375 38.93 -261.4375 38.25 C-227.8064165 27.41118223 -193.7500903 18.08181728 -158.78198242 12.76318359 C-155.59165767 12.27365424 -152.40501894 11.76519211 -149.21875 11.25 C-138.1060177 9.47133322 -127.0363152 7.8387316 -115.81445312 6.93359375 C-111.14595937 6.55009636 -106.54335514 5.98882627 -101.91015625 5.29296875 C-94.41590586 4.19565772 -86.91971964 3.48855945 -79.3737793 2.87231445 C-77.1645461 2.69075007 -74.95634981 2.49914923 -72.74804688 2.30664062 C-48.54030269 0.25404565 -24.27922715 0.01305326 0 0 Z " fill="#760F10" transform="translate(633.4375,971.75)"/>
<path d="M0 0 C0.33 0 0.66 0 1 0 C1 108.9 1 217.8 1 330 C0.67 330 0.34 330 0 330 C-0.33 328.02 -0.66 326.04 -1 324 C-1.33 324 -1.66 324 -2 324 C-2 220.38 -2 116.76 -2 10 C-1.67 10 -1.34 10 -1 10 C-0.67 6.7 -0.34 3.4 0 0 Z " fill="#111010" transform="translate(667,546)"/>
<path d="M0 0 C0.33 0 0.66 0 1 0 C1.18175781 0.6290625 1.36351562 1.258125 1.55078125 1.90625 C3.15552584 7.37061108 4.93585454 12.69219738 7 18 C12.05212126 16.21689838 14.72504924 11.62659961 17.84570312 7.5234375 C21.39806718 3.08422105 21.39806718 3.08422105 24.84765625 2.6015625 C25.55792969 2.73304688 26.26820313 2.86453125 27 3 C26.236875 3.99 25.47375 4.98 24.6875 6 C19.55371971 12.82854632 14.81262493 19.94376701 10 27 C11.85044922 26.51080078 11.85044922 26.51080078 13.73828125 26.01171875 C19.63208356 24.54118847 25.04645985 24.51161496 31 26 C28.2002455 27.48555149 25.48486561 28.54695433 22.4453125 29.4375 C21.15173828 29.82035156 21.15173828 29.82035156 19.83203125 30.2109375 C18.49205078 30.60152344 18.49205078 30.60152344 17.125 31 C15.35652237 31.51998906 13.58828693 32.04080263 11.8203125 32.5625 C10.98790039 32.80613281 10.15548828 33.04976563 9.29785156 33.30078125 C7.34488393 33.89505444 5.41512711 34.56476539 3.4921875 35.25 C1 36 1 36 -1 35 C-0.35843054 29.48250265 -0.35843054 29.48250265 1.625 26.8125 C4.14595416 21.65600285 2.84502762 15.78436601 1.21875 10.42578125 C0.68470194 8.9299522 0.12278725 7.44353753 -0.4765625 5.97265625 C-1.09774583 3.63162953 -0.76139399 2.26895409 0 0 Z " fill="#465A33" transform="translate(641,315)"/>
<path d="M0 0 C5.71868445 0.54177011 10.29104778 2.12307196 15.5 4.5 C16.27593506 4.84949707 17.05187012 5.19899414 17.85131836 5.55908203 C38.55631916 15.11263832 38.55631916 15.11263832 41 20 C37.94225159 18.79169619 34.90504877 17.54129185 31.875 16.265625 C19.79982956 11.2438716 7.64330443 7.32758892 -5 4 C-4.360625 3.71125 -3.72125 3.4225 -3.0625 3.125 C-0.84793921 2.17176549 -0.84793921 2.17176549 0 0 Z " fill="#0A0D07" transform="translate(721,348)"/>
<path d="M0 0 C1.79133978 -0.05391993 3.58313899 -0.09275571 5.375 -0.125 C6.37273437 -0.14820313 7.37046875 -0.17140625 8.3984375 -0.1953125 C11 0 11 0 13 2 C12.34 2.66 11.68 3.32 11 4 C10.67 4.66 10.34 5.32 10 6 C6.79317156 6.08907857 4.08403969 5.8811542 1 5 C0.67 5 0.34 5 0 5 C0 3.35 0 1.7 0 0 Z " fill="#F0ECE4" transform="translate(323,359)"/>
<path d="M0 0 C7.09434233 -0.09733092 13.98194143 -0.10087193 21 1 C21 1.66 21 2.32 21 3 C22.98 3 24.96 3 27 3 C27.33 3.66 27.66 4.32 28 5 C24.9984226 4.67840242 21.9993721 4.34136076 19 4 C18.35708008 3.93022949 17.71416016 3.86045898 17.05175781 3.78857422 C14.90852603 3.55457743 12.76680092 3.30922233 10.625 3.0625 C9.5721582 2.95059326 9.5721582 2.95059326 8.49804688 2.83642578 C4.95920325 2.41843193 3.02133602 2.01422402 0 0 Z " fill="#CFCBC2" transform="translate(498,369)"/>
<path d="M0 0 C6.39895163 2.90861438 11.58246742 6.53555185 17 11 C16.67 12.32 16.34 13.64 16 15 C15.26394531 14.31292969 14.52789063 13.62585938 13.76953125 12.91796875 C12.78406429 12.00758499 11.79837538 11.09744146 10.8125 10.1875 C9.84957031 9.29417969 8.88664063 8.40085938 7.89453125 7.48046875 C5.12499296 4.96314765 5.12499296 4.96314765 2.13671875 3.30078125 C1.43160156 2.87152344 0.72648438 2.44226563 0 2 C0 1.34 0 0.68 0 0 Z " fill="#0A0E06" transform="translate(574,246)"/>
<path d="M0 0 C-3.41706032 1.13902011 -4.66260692 0.8198446 -8.10546875 0.00390625 C-9.08837891 -0.22490234 -10.07128906 -0.45371094 -11.08398438 -0.68945312 C-12.10814453 -0.93630859 -13.13230469 -1.18316406 -14.1875 -1.4375 C-15.22326172 -1.68048828 -16.25902344 -1.92347656 -17.32617188 -2.17382812 C-19.88589053 -2.77542099 -22.44361918 -3.38440501 -25 -4 C-25 -4.33 -25 -4.66 -25 -5 C-16.23947232 -7.19013192 -8.11270807 -3.07209166 0 0 Z " fill="#600C0D" transform="translate(902,1011)"/>
<path d="M0 0 C-3.30348194 2.93284738 -6.03928983 3.62339387 -10.375 4.25 C-11.47585938 4.42015625 -12.57671875 4.5903125 -13.7109375 4.765625 C-17.01738189 5.00123861 -19.76787137 4.68353174 -23 4 C-23 3.67 -23 3.34 -23 3 C-21.44539062 2.69255859 -21.44539062 2.69255859 -19.859375 2.37890625 C-18.48957311 2.10682231 -17.11978201 1.83468404 -15.75 1.5625 C-15.06808594 1.42779297 -14.38617187 1.29308594 -13.68359375 1.15429688 C-10.98948772 0.61809131 -8.31118899 0.08298373 -5.65625 -0.625 C-3.52656696 -1.10719239 -2.05298534 -0.65988814 0 0 Z " fill="#CDC9BF" transform="translate(820,691)"/>
<path d="M0 0 C1.31385513 3.6841208 0.69552138 6.32212865 -0.25 10.0625 C-0.50265625 11.10535156 -0.7553125 12.14820313 -1.015625 13.22265625 C-1.98574839 15.95979011 -2.77817338 17.19632614 -5 19 C-4.53270433 12.03890592 -3.14252579 6.28505159 0 0 Z " fill="#6A0C0E" transform="translate(68,482)"/>
<path d="M0 0 C4.02632109 1.12330975 7.33101088 3.35993479 10.8125 5.625 C11.78832031 6.25664062 12.76414062 6.88828125 13.76953125 7.5390625 C14.50558594 8.02117187 15.24164062 8.50328125 16 9 C15.01 9.495 15.01 9.495 14 10 C11.35546875 8.85546875 11.35546875 8.85546875 8.1875 7.1875 C4.50702482 5.26268006 0.88573785 3.47241453 -3 2 C-2.01 1.34 -1.02 0.68 0 0 Z " fill="#171E0E" transform="translate(746,358)"/>
<path d="M0 0 C0 0.33 0 0.66 0 1 C-3.96 1 -7.92 1 -12 1 C-12 1.66 -12 2.32 -12 3 C-17.28 2.67 -22.56 2.34 -28 2 C-28 1.67 -28 1.34 -28 1 C-18.64087671 0.00736571 -9.39605802 -0.10731538 0 0 Z " fill="#540A0B" transform="translate(591,973)"/>
<path d="M0 0 C-3.25641668 1.80476105 -6.45336795 2.73948805 -10.0625 3.625 C-11.10535156 3.88539063 -12.14820313 4.14578125 -13.22265625 4.4140625 C-16 5 -16 5 -19 5 C-19 4.34 -19 3.68 -19 3 C-16.77518771 2.29853686 -14.54492632 1.61434046 -12.3125 0.9375 C-11.07113281 0.55464844 -9.82976562 0.17179688 -8.55078125 -0.22265625 C-5.1468214 -0.96785758 -3.28440924 -0.99851065 0 0 Z " fill="#5C070A" transform="translate(391,1007)"/>
<path d="M0 0 C-2.16549811 2.16549811 -3.1248334 2.35076883 -6 3 C-6.33 3.33 -6.66 3.66 -7 4 C-9.67058851 4.14115161 -12.32432238 4.04247107 -15 4 C-15.33 3.34 -15.66 2.68 -16 2 C-14.08654673 1.46748234 -12.1690705 0.94940517 -10.25 0.4375 C-9.18265625 0.14746094 -8.1153125 -0.14257812 -7.015625 -0.44140625 C-4.15664073 -0.97098494 -2.68402617 -0.98370862 0 0 Z " fill="#3D3C38" transform="translate(849,698)"/>
<path d="M0 0 C0.33 0 0.66 0 1 0 C1 7.26 1 14.52 1 22 C1.99 22.33 2.98 22.66 4 23 C3.34 23.99 2.68 24.98 2 26 C1.34 26 0.68 26 0 26 C0 17.42 0 8.84 0 0 Z " fill="#3D4D2C" transform="translate(656,283)"/>
<path d="M0 0 C0.33 0 0.66 0 1 0 C1.19335938 0.65226562 1.38671875 1.30453125 1.5859375 1.9765625 C2.98640448 6.6771398 4.41208726 11.35840891 6 16 C5.01 16.66 4.02 17.32 3 18 C2.30030318 15.75376301 1.61564957 13.50283586 0.9375 11.25 C0.55464844 9.99703125 0.17179688 8.7440625 -0.22265625 7.453125 C-0.92656828 4.3261992 -1.16653785 2.90533954 0 0 Z " fill="#242D19" transform="translate(641,315)"/>
<path d="M0 0 C4.51617599 -0.07654536 8.59085217 -0.10228696 13 1 C10.11371599 2.57554035 7.46657616 3.46276373 4.25 4.125 C3.45078125 4.29257812 2.6515625 4.46015625 1.828125 4.6328125 C1.22484375 4.75398438 0.6215625 4.87515625 0 5 C0 3.33333333 0 1.66666667 0 0 Z " fill="#3C4D2C" transform="translate(659,340)"/>
<path d="M0 0 C-2.48434437 2.34290892 -3.77731593 2.97982934 -7.234375 3.29296875 C-8.39453125 3.25816406 -9.5546875 3.22335937 -10.75 3.1875 C-11.92046875 3.16042969 -13.0909375 3.13335938 -14.296875 3.10546875 C-15.18890625 3.07066406 -16.0809375 3.03585937 -17 3 C-16.67 2.34 -16.34 1.68 -16 1 C-10.62136627 0.05638005 -5.45066266 -0.09733326 0 0 Z " fill="#D2CEC5" transform="translate(812,911)"/>
<path d="M0 0 C0.66 0 1.32 0 2 0 C3.7265625 2.3359375 3.7265625 2.3359375 5.625 5.375 C6.25664063 6.37273438 6.88828125 7.37046875 7.5390625 8.3984375 C9 11 9 11 9 13 C8.34 13 7.68 13 7 13 C7 12.34 7 11.68 7 11 C6.34 11 5.68 11 5 11 C4.35165346 9.730447 3.70642185 8.45930294 3.0625 7.1875 C2.70285156 6.47980469 2.34320312 5.77210938 1.97265625 5.04296875 C1 3 1 3 0 0 Z " fill="#E2DED5" transform="translate(912,551)"/>
<path d="M0 0 C-6.1213318 3.39920457 -13.14875704 3.14577113 -20 3 C-16.6581815 0.772121 -14.50161606 0.40716792 -10.5625 -0.1875 C-9.42941406 -0.36667969 -8.29632812 -0.54585937 -7.12890625 -0.73046875 C-4.35029722 -0.96982458 -2.59928815 -0.90049049 0 0 Z " fill="#5A0A0A" transform="translate(537,48)"/>
<path d="M0 0 C4.51617599 -0.07654536 8.59085217 -0.10228696 13 1 C9.60268371 3.09065618 6.95730595 3.42098999 3 3 C1.125 1.5 1.125 1.5 0 0 Z " fill="#1D1D1B" transform="translate(504,371)"/>
<path d="M0 0 C1.14926266 0.95421808 2.29430541 1.91352045 3.4375 2.875 C4.07558594 3.40867187 4.71367188 3.94234375 5.37109375 4.4921875 C7 6 7 6 8 8 C7.34 8.66 6.68 9.32 6 10 C3.69 7.36 1.38 4.72 -1 2 C-0.67 1.34 -0.34 0.68 0 0 Z " fill="#141312" transform="translate(880,740)"/>
<path d="M0 0 C1.27450447 0.59638333 2.54446877 1.20247416 3.8125 1.8125 C4.52019531 2.14894531 5.22789062 2.48539063 5.95703125 2.83203125 C8.01129035 4.00645471 9.41616278 5.25628016 11 7 C10.01 7.33 9.02 7.66 8 8 C5.95703125 6.85546875 5.95703125 6.85546875 3.8125 5.1875 C3.09707031 4.64480469 2.38164063 4.10210937 1.64453125 3.54296875 C1.10183594 3.03378906 0.55914063 2.52460938 0 2 C0 1.34 0 0.68 0 0 Z " fill="#1F2A14" transform="translate(574,246)"/>
<path d="M0 0 C2.31 0 4.62 0 7 0 C6.01 0.495 6.01 0.495 5 1 C4.67 1.99 4.34 2.98 4 4 C2.68 3.67 1.36 3.34 0 3 C0 2.01 0 1.02 0 0 Z " fill="#51653B" transform="translate(655,341)"/>
<path d="M0 0 C1.11375 0.1546875 1.11375 0.1546875 2.25 0.3125 C1.125 2.25 1.125 2.25 -0.75 4.3125 C-3.9375 5.0625 -3.9375 5.0625 -6.75 5.3125 C-3.42692308 0.38942308 -3.42692308 0.38942308 0 0 Z " fill="#41532F" transform="translate(665.75,317.6875)"/>
<path d="M0 0 C0.66 0.33 1.32 0.66 2 1 C-2.455 4.465 -2.455 4.465 -7 8 C-7.99 7.34 -8.98 6.68 -10 6 C-8.3811004 4.96951963 -6.75467511 3.95085322 -5.125 2.9375 C-4.22007812 2.36902344 -3.31515625 1.80054688 -2.3828125 1.21484375 C-1.20332031 0.61349609 -1.20332031 0.61349609 0 0 Z " fill="#1A2411" transform="translate(744,226)"/>
<path d="M0 0 C3.25543229 0.34879632 4.01873107 1.02133261 6.25 3.5625 C6.8275 4.366875 7.405 5.17125 8 6 C5 6 5 6 3.61328125 4.6875 C2.40885417 3.125 1.20442708 1.5625 0 0 Z " fill="#D7D3CB" transform="translate(926,738)"/>
<path d="M0 0 C-2.57089417 2.11180592 -4.63060567 3.66306057 -8 4 C-8.66 3.34 -9.32 2.68 -10 2 C-3.375 -1.125 -3.375 -1.125 0 0 Z " fill="#D0CDC4" transform="translate(841,683)"/>
<path d="M0 0 C0.66 0.66 1.32 1.32 2 2 C-3.5 5.125 -3.5 5.125 -8 4 C-5.36 2.68 -2.72 1.36 0 0 Z " fill="#D5D1C7" transform="translate(563,594)"/>
<path d="M0 0 C-1.39332574 3.36720387 -2.9789286 4.9859524 -6 7 C-6.66 6.67 -7.32 6.34 -8 6 C-7.0479279 4.99403703 -6.08812654 3.99538437 -5.125 3 C-4.59132813 2.443125 -4.05765625 1.88625 -3.5078125 1.3125 C-2 0 -2 0 0 0 Z " fill="#D9D4CB" transform="translate(587,575)"/>
<path d="M0 0 C0.66 0.99 1.32 1.98 2 3 C1.01 4.98 0.02 6.96 -1 9 C-1.66 9 -2.32 9 -3 9 C-2.01 6.03 -1.02 3.06 0 0 Z " fill="#5B0A0B" transform="translate(93,402)"/>
<path d="M0 0 C0.598125 0.20625 1.19625 0.4125 1.8125 0.625 C0.1625 1.945 -1.4875 3.265 -3.1875 4.625 C-3.8475 3.635 -4.5075 2.645 -5.1875 1.625 C-2.1875 -0.375 -2.1875 -0.375 0 0 Z " fill="#0C1209" transform="translate(734.1875,233.375)"/>
</svg>
